<?xml version="1.0" encoding="UTF-8"?>
<svg version="1.1" xmlns="http://www.w3.org/2000/svg" width="800" height="800">
<path d="M0 0 C264 0 528 0 800 0 C800 264 800 528 800 800 C536 800 272 800 0 800 C0 536 0 272 0 0 Z " fill="#FEFEFE" transform="translate(0,0)"/>
<path d="M0 0 C128.88778265 0 128.88778265 0 141.5 4.625 C142.21285156 4.88369873 142.92570313 5.14239746 143.66015625 5.40893555 C159.20737733 11.31388971 171.16727237 21.23204478 179 36 C180.59350899 39.60531409 181.86894198 43.22601745 183 47 C183.22558594 47.6909375 183.45117188 48.381875 183.68359375 49.09375 C188.12593622 65.02490919 184.7819992 83.34561528 177.12890625 97.61328125 C170.2017057 109.10173655 159.89623415 117.05188292 148 123 C147.34786708 125.02463255 147.34786708 125.02463255 147 127 C147.680625 127.12375 148.36125 127.2475 149.0625 127.375 C166.42487508 131.06912236 182.15691148 140.29637675 192.21875 155.12109375 C200.91219271 169.17167988 203.52011023 182.10861248 203.375 198.5625 C203.38660156 199.88185547 203.39820313 201.20121094 203.41015625 202.56054688 C203.35107328 222.44196769 196.60418328 241.09766337 182.9375 255.6875 C139.89572917 296.9064636 35.96940494 278 0 278 C0 186.26 0 94.52 0 0 Z " fill="#020202" transform="translate(416,256)"/>
<path d="M0 0 C14.89125 -0.061875 29.7825 -0.12375 45.125 -0.1875 C49.80059082 -0.21481201 54.47618164 -0.24212402 59.29345703 -0.27026367 C65.07006836 -0.28381348 65.07006836 -0.28381348 67.787323 -0.28633118 C69.65672966 -0.29089224 71.52612834 -0.30134683 73.39547729 -0.31672668 C91.29416807 -0.45642991 109.91187512 0.38285585 123.9375 13.1875 C134.19086659 24.79067688 137.57666538 37.72601366 137.4375 52.875 C137.43065186 54.01960693 137.42380371 55.16421387 137.41674805 56.34350586 C137.26049574 64.55582292 136.51130015 71.48073554 133 79 C132.649375 79.80824219 132.29875 80.61648438 131.9375 81.44921875 C127.07205863 91.3997221 119.08559405 97.84420962 109 102 C108.33226562 102.29519531 107.66453125 102.59039062 106.9765625 102.89453125 C94.88491446 107.90392829 82.06451914 107.26668742 69.23828125 107.1953125 C67.46236293 107.19236627 65.68644287 107.19032941 63.91052246 107.18920898 C57.37782156 107.17878888 50.84515801 107.15086647 44.3125 107.125 C29.689375 107.08375 15.06625 107.0425 0 107 C0 71.69 0 36.38 0 0 Z " fill="#FEFEFE" transform="translate(449,400)"/>
<path d="M0 0 C10.56 0 21.12 0 32 0 C32.06962019 26.79167179 32.12307234 53.58332158 32.15543652 80.3750658 C32.17086707 92.81656294 32.19188328 105.25800264 32.22631836 117.69946289 C32.25633787 128.55079699 32.27560266 139.40208945 32.28226548 150.25346392 C32.28615657 155.99248741 32.29522069 161.73139186 32.31719017 167.47037697 C32.33775416 172.88677966 32.34379411 178.30301578 32.33932304 183.71945381 C32.34013943 185.69331522 32.3459852 187.66718298 32.35761642 189.64101028 C32.46322989 208.51048691 30.52104134 225.58496845 23 243 C22.68289063 243.78632813 22.36578125 244.57265625 22.0390625 245.3828125 C15.47442305 260.25864686 1.38293287 270.72731628 -13.421875 276.4921875 C-39.67123558 285.70147332 -72.17978638 285.12977219 -97.46166992 273.14575195 C-113.00841256 265.36027693 -129.42254169 253.86267303 -136 237 C-135.28845648 231.44443119 -131.03496123 227.11177691 -127.8125 222.75 C-127.15185547 221.81414062 -126.49121094 220.87828125 -125.81054688 219.9140625 C-125.15763672 219.02976562 -124.50472656 218.14546875 -123.83203125 217.234375 C-123.24139893 216.42194336 -122.6507666 215.60951172 -122.04223633 214.77246094 C-120 213 -120 213 -116.76049805 212.73535156 C-115.84953369 212.82268555 -114.93856934 212.91001953 -114 213 C-113.731875 213.53367187 -113.46375 214.06734375 -113.1875 214.6171875 C-104.49159522 231.15084857 -91.88967722 241.60077329 -74.4140625 247.96484375 C-57.62865384 253.05424111 -39.17253177 252.6724646 -23.015625 245.71484375 C-13.92609557 240.77069062 -9.32458074 233.6067786 -5.6875 224.1875 C-5.44483398 223.56053223 -5.20216797 222.93356445 -4.95214844 222.28759766 C-0.49462956 209.81348012 -0.69506022 196.96727833 -0.68115234 183.91113281 C-0.67183995 181.8995321 -0.66166935 179.8879352 -0.65071106 177.87634277 C-0.6235448 172.44748252 -0.60830152 167.01864803 -0.59528303 161.58973789 C-0.57959366 155.90425749 -0.55282209 150.21882923 -0.5272522 144.53338623 C-0.48056687 133.7815179 -0.4437733 123.02963965 -0.41057932 112.27772212 C-0.37228535 100.03096976 -0.32289434 87.78426991 -0.27259517 75.53756189 C-0.16942778 50.35841284 -0.08051178 25.17923081 0 0 Z " fill="#010101" transform="translate(302,256)"/>
<path d="M0 0 C20.295 -0.061875 20.295 -0.061875 41 -0.125 C45.26035156 -0.14320801 49.52070313 -0.16141602 53.91015625 -0.18017578 C59.14257812 -0.18920898 59.14257812 -0.18920898 61.59790039 -0.19088745 C63.30005949 -0.19394358 65.00221445 -0.20094636 66.7043457 -0.21115112 C69.2938582 -0.22588987 71.8831078 -0.22780868 74.47265625 -0.22705078 C75.22144547 -0.234247 75.97023468 -0.24144321 76.74171448 -0.2488575 C87.71882822 -0.20613888 100.40148504 3.52976626 108.4765625 11.2109375 C116.55988811 20.70366347 119.52307668 30.80693735 119.3125 43.0625 C119.31572266 44.00416016 119.31894531 44.94582031 119.32226562 45.91601562 C119.22991246 57.98069761 115.70950681 69.29049319 107 78 C97.2913539 85.68199035 87.11167745 89.17178249 74.81323242 89.11352539 C73.98991834 89.11364593 73.16660425 89.11376646 72.31834126 89.11389065 C69.66402255 89.11314668 67.00977483 89.105542 64.35546875 89.09765625 C62.71244338 89.09618523 61.06941754 89.09516551 59.4263916 89.09460449 C53.3467539 89.08937013 47.26712625 89.07540888 41.1875 89.0625 C27.595625 89.041875 14.00375 89.02125 0 89 C0 59.63 0 30.26 0 0 Z " fill="#FEFEFE" transform="translate(449,283)"/>
</svg>
